<?xml version="1.0" encoding="UTF-8" standalone="no"?>
<svg
   xmlns:dc="http://purl.org/dc/elements/1.1/"
   xmlns:cc="http://creativecommons.org/ns#"
   xmlns:rdf="http://www.w3.org/1999/02/22-rdf-syntax-ns#"
   xmlns:svg="http://www.w3.org/2000/svg"
   xmlns="http://www.w3.org/2000/svg"
   xmlns:xlink="http://www.w3.org/1999/xlink"
   xmlns:sodipodi="http://sodipodi.sourceforge.net/DTD/sodipodi-0.dtd"
   xmlns:inkscape="http://www.inkscape.org/namespaces/inkscape"
   width="480"
   height="480"
   version="1.1"
   id="svg3761"
   sodipodi:docname="logo.svg"
   inkscape:version="0.92.4 (5da689c313, 2019-01-14)">
  <metadata
     id="metadata3765">
    <rdf:RDF>
      <cc:Work
         rdf:about="">
        <dc:format>image/svg+xml</dc:format>
        <dc:type
           rdf:resource="http://purl.org/dc/dcmitype/StillImage" />
        <dc:title />
      </cc:Work>
    </rdf:RDF>
  </metadata>
  <sodipodi:namedview
     pagecolor="#ffffff"
     bordercolor="#666666"
     borderopacity="1"
     objecttolerance="10"
     gridtolerance="10"
     guidetolerance="10"
     inkscape:pageopacity="0"
     inkscape:pageshadow="2"
     inkscape:window-width="1920"
     inkscape:window-height="1057"
     id="namedview3763"
     showgrid="true"
     inkscape:zoom="1.4142136"
     inkscape:cx="218.02818"
     inkscape:cy="267.41653"
     inkscape:window-x="-8"
     inkscape:window-y="-8"
     inkscape:window-maximized="1"
     inkscape:current-layer="g3973"
     showguides="false">
    <inkscape:grid
       type="xygrid"
       id="grid3767" />
  </sodipodi:namedview>
  <!-- Created with SVG-edit - https://github.com/SVG-Edit/svgedit-->
  <defs
     id="defs3742">
    <symbol
       id="svg_1"
       viewBox="0 0 440 600">
      <path
         d="m 61.5,535.6 c 0,-10.4 0,-8.1 7.4,-19.2 C 106.6,460.2 186.5,341 208.7,270 c 4.4,-14.1 5.2,-14.1 3.7,-25.9 C 202,159.7 173.2,84.3 100.7,84.3 c -14.1,0 -29.6,5.9 -45.1,17 -7.4,5.2 -12.6,7.4 -16.3,7.4 -5.2,0 -6.7,-0.7 -6.7,-8.1 0,-19.2 48.1,-68.8 88.8,-68.8 73.3,0 96.2,100.6 122.8,254.6 9.6,55.5 22.2,117.7 37.7,172.4 8.9,31.1 31.8,37 43.7,37 26.6,0.7 44.4,-11.8 50.3,-11.8 3.7,0 8.1,3 8.1,6.7 0,39.2 -30.3,69.6 -62.2,69.6 -24.4,0 -45.9,-9.6 -57,-46.6 -14.8,-48.8 -30.3,-126.5 -37,-177.6 -0.7,-3.7 -3,-4.4 -4.4,-0.7 -17.8,44.4 -68.1,139.9 -102.1,200.5 -2.2,4.4 -11.1,26.6 -17,26.6 C 94,562.3 61.5,549 61.5,535.6 Z"
         id="svg_4"
         inkscape:connector-curvature="0"
         style="fill:#bf0000" />
    </symbol>
  </defs>
  <g
     class="layer"
     id="g3759">
    <title
       id="title3744">Layer 1</title>
    <g
       id="svg_3" />
    <g
       id="svg_11" />
    <g
       id="svg_8" />
    <g
       id="g3973"
       transform="matrix(1.2720228,0,0,1.2720228,-64.020887,-66.264451)">
      <g
         transform="matrix(11.553744,0,0,11.319101,-65.94063,-529.84888)"
         id="svg_16">
        <circle
           style="fill:#55bfbf"
           r="0.75400001"
           id="svg_17"
           cy="62.066978"
           cx="28.061729" />
        <g
           id="svg_18">
          <path
             style="fill:#55bfbf"
             inkscape:connector-curvature="0"
             id="svg_19"
             d="m 32.37373,58.42698 v -6.32 h -6.199 v 6.32 l -0.014,0.037 -5.598,14.479 h 17.425 z m -6.707,12.217 c -0.163,0.172 -0.392,0.271 -0.629,0.271 -0.223,0 -0.434,-0.083 -0.596,-0.237 -0.168,-0.156 -0.265,-0.372 -0.271,-0.604 -0.007,-0.23 0.078,-0.45 0.237,-0.62 0.315,-0.334 0.89,-0.35 1.225,-0.033 0.346,0.326 0.363,0.875 0.034,1.223 z m 3.654,-2.283 c -0.249,0.263 -0.601,0.415 -0.963,0.415 -0.341,0 -0.665,-0.128 -0.911,-0.363 -0.257,-0.241 -0.404,-0.569 -0.416,-0.925 -0.01,-0.354 0.119,-0.69 0.361,-0.948 0.251,-0.265 0.604,-0.416 0.967,-0.416 0.339,0 0.663,0.129 0.909,0.363 0.257,0.241 0.405,0.573 0.415,0.926 0.011,0.354 -0.118,0.691 -0.362,0.948 z m 2.648,-4.356 h -6.384 l 2.05,-5.305 v -5.133 h 3.279 v 5.133 l 4.944,12.781 h -0.983 z" />
        </g>
      </g>
      <g
         transform="matrix(1.0461804,0,0,1.2329665,31.580573,-168.10924)"
         id="svg_7">
        <use
           height="100%"
           width="100%"
           y="863.50079"
           xlink:href="#svg_1"
           x="112.75011"
           transform="matrix(0.358816,0,0,0.227074,0.363277,179.396)"
           id="svg_2" />
        <use
           height="100%"
           width="100%"
           y="863.65607"
           xlink:href="#svg_1"
           x="386.48563"
           transform="matrix(0.358816,0,0,0.227074,0.363277,179.396)"
           id="svg_5" />
        <use
           height="100%"
           width="100%"
           y="863.65607"
           xlink:href="#svg_1"
           x="661.4859"
           transform="matrix(0.358816,0,0,0.227074,0.363277,179.396)"
           id="svg_6" />
      </g>
      <path
         style="fill:#0000ff;stroke-width:0.8028242"
         d="M 58.191478,209.32365 V 59.955255 h 15.722989 l 15.722988,0 v 62.891955 62.89195 h 55.030465 31.44597 v 15.72299 15.72299 H 144.66792 89.637455 v 70.75345 70.75345 l -15.722988,0 H 58.191478 Z"
         id="path3773"
         inkscape:connector-curvature="0"
         sodipodi:nodetypes="ccccccccccccccccc" />
    </g>
  </g>
</svg>
